<?xml version="1.0" encoding="utf-8"?>
<!-- Generator: Adobe Illustrator 24.0.0, SVG Export Plug-In . SVG Version: 6.00 Build 0)  -->
<svg version="1.1" id="图层_1" xmlns="http://www.w3.org/2000/svg" xmlns:xlink="http://www.w3.org/1999/xlink" x="0px" y="0px"
	 viewBox="0 0 200 200" style="enable-background:new 0 0 200 200;" xml:space="preserve">
<style type="text/css">
	.st0{fill:#0BB7B7;}
	.st1{fill:#0DA7D1;}
</style>
<path class="st0" d="M79.5,145.5c-1.2,0-4.9,0.4-4.9-1.6c0-3.6,10-16.6,10-31.4c0-5.8-5.6-8-11.4-8c-11.8,0-30.6,2.1-30.6,16.9
	c0,10.2,8.4,21.3,8.4,23.2c0,0.8-0.8,0.9-2.5,0.9H30c-6.6,0-8.4-11.7-8.4-28.5c0-55.5,38.5-81.3,44.2-81.3
	c4.3,0,37.7,18.5,37.7,78.7c0,34.6-5.6,31.1-9.5,31.1H79.5z M45.4,87.9c0,1.6,0.9,2.5,2.5,2.5c2.3,0,14.9-3.4,26.3-3.4
	c4.5,0,6.6-0.6,6.6-4.3c0-8-9.6-24.9-14.5-24.9C59.3,57.8,45.4,78.5,45.4,87.9z"/>
<path class="st1" d="M172.4,51.5c1.1,0,3.6-0.5,3.6,1.4c0,16.8-19.2,34.4-19.2,36.7c0,2.5,21.7,20.4,21.7,53.5c0,3-2.4,2.4-4.9,2.4
	h-13.8c-2.8,0-2.5-3.3-2.5-4.5c-0.6-25.6-10.5-37.7-12.4-37.7c-2.7,0-12.4,8.4-12.4,14.8c0,4.5,3.8,24.6,3.8,25.5
	c0,1.4-0.9,1.9-2.1,1.9h-13.8c-2.8,0-6.2,2.1-6.2-40.2c0-55.8,5.9-53.7,7.8-53.7h11.4c1.5,0,3.8-0.3,3.8,1.8
	c0,0.1-5.5,16.3-5.5,32.5c0,1.2-0.3,7.1,1.9,7.1c2.5,0,19.2-19.4,24.6-38.4c0.8-2.5,0.7-2.9,3.3-3H172.4z"/>
</svg>
